<svg id="Line" xmlns="http://www.w3.org/2000/svg" viewBox="0 0 64 64"><title>1</title><path d="M54,18.70508H48.814L41.2168,11.1084a.99964.99964,0,0,0-1.41407,0l-5.11291,5.11249-6.413-6.41327a1.03189,1.03189,0,0,0-1.41456,0L24.29791,12.375H8.16992a4.19827,4.19827,0,0,0-2.94678,1.22266A4.13168,4.13168,0,0,0,4,16.53516V48.48535a6.00656,6.00656,0,0,0,6,6H54a6.00656,6.00656,0,0,0,6-6V24.70508A6.00656,6.00656,0,0,0,54,18.70508ZM40.50977,13.22949l5.47595,5.47559H37.17383l-1.07-1.07007Zm-12.93946-1.2998,6.77539,6.77539h-13.543Zm-20.9331,3.082A2.18629,2.18629,0,0,1,8.16992,14.375H22.30023l-4.325,4.33008H8.16992A2.17264,2.17264,0,0,1,6,16.53516,2.14538,2.14538,0,0,1,6.63721,15.01172ZM54,52.48535H10a4.00426,4.00426,0,0,1-4-4V20.07874a4.12774,4.12774,0,0,0,2.16992.62634H54a4.00426,4.00426,0,0,1,4,4v6.07519H50.92578a5.81495,5.81495,0,0,0,0,11.62989H58v6.07519A4.00426,4.00426,0,0,1,54,52.48535Zm4-12.07519H50.92578a3.81495,3.81495,0,0,1,0-7.62989H58Z" id="id_101"></path><path d="M48.61133,36.59473a2.72217,2.72217,0,1,0,2.72217-2.72168A2.72571,2.72571,0,0,0,48.61133,36.59473Zm2.72217-.72168a.72217.72217,0,1,1-.72217.72168A.7229.7229,0,0,1,51.3335,35.87305Z" id="id_102"></path></svg>